HIERARCHY
ROOT Hips
{
  OFFSET 363.916 89.4436 202.859
  CHANNELS 6 Xposition Yposition Zposition Zrotation Xrotation Yrotation
  JOINT RightUpLeg
  {
    OFFSET -9.22681 -1.41939 0.059526
    CHANNELS 3 Zrotation Xrotation Yrotation
    JOINT RightLeg
    {
      OFFSET 0.076897 -41.8891 0.179098
      CHANNELS 3 Zrotation Xrotation Yrotation
      JOINT RightFoot
      {
        OFFSET -0.0130714 -43.0092 0.527065
        CHANNELS 3 Zrotation Xrotation Yrotation
        End Site
        {
          OFFSET 0 -7.69 17.5
        }
      }
    }
  }
  JOINT LeftUpLeg
  {
    OFFSET 9.19333 -1.7604 -0.077889
    CHANNELS 3 Zrotation Xrotation Yrotation
    JOINT LeftLeg
    {
      OFFSET -0.0291634 -41.859 -0.15197
      CHANNELS 3 Zrotation Xrotation Yrotation
      JOINT LeftFoot
      {
        OFFSET 0.141288 -40.5593 0.458407
        CHANNELS 3 Zrotation Xrotation Yrotation
        End Site
        {
          OFFSET 0 -7.69 17.5
        }
      }
    }
  }
  JOINT Spine
  {
    OFFSET 0.215607 14.2961 0.04713
    CHANNELS 3 Zrotation Xrotation Yrotation
    JOINT Spine1
    {
      OFFSET 0.127345 9.70675 0.00151561
      CHANNELS 3 Zrotation Xrotation Yrotation
      JOINT Spine2
      {
        OFFSET 0.0493166 10.1169 -0.00299987
        CHANNELS 3 Zrotation Xrotation Yrotation
        JOINT Spine3
        {
          OFFSET 0.0599611 9.70888 0.0197622
          CHANNELS 3 Zrotation Xrotation Yrotation
          JOINT Neck
          {
            OFFSET 0.305156 10.372 0.0704915
            CHANNELS 3 Zrotation Xrotation Yrotation
            JOINT Head
            {
              OFFSET 0.288394 9.47974 0.0406202
              CHANNELS 3 Zrotation Xrotation Yrotation
              End Site
              {
                OFFSET 0 15.95 0
              }
            }
          }
          JOINT RightShoulder
          {
            OFFSET -3.14873 6.92098 0.0285763
            CHANNELS 3 Zrotation Xrotation Yrotation
            JOINT RightArm
            {
              OFFSET -12.7049 -0.00288304 0.0369593
              CHANNELS 3 Zrotation Xrotation Yrotation
              JOINT RightForeArm
              {
                OFFSET -26.4954 -0.160471 0.0134548
                CHANNELS 3 Zrotation Xrotation Yrotation
                JOINT RightHand
                {
                  OFFSET -26.0026 -0.0211725 -0.0218708
                  CHANNELS 3 Zrotation Xrotation Yrotation
                  JOINT RightHandThumb1
                  {
                    OFFSET -2.48905 0.190105 3.12053
                    CHANNELS 3 Zrotation Xrotation Yrotation
                    JOINT RightHandThumb2
                    {
                      OFFSET -3.68274 0 0
                      CHANNELS 3 Zrotation Xrotation Yrotation
                      JOINT RightHandThumb3
                      {
                        OFFSET -2.55832 0 0
                        CHANNELS 3 Zrotation Xrotation Yrotation
                        End Site
                        {
                          OFFSET -2.194 0 0
                        }
                      }
                    }
                  }
                  JOINT RightInHandIndex
                  {
                    OFFSET -3.22368 0.508421 1.97842
                    CHANNELS 3 Zrotation Xrotation Yrotation
                    JOINT RightHandIndex1
                    {
                      OFFSET -5.21684 -0.091368 0.999158
                      CHANNELS 3 Zrotation Xrotation Yrotation
                      JOINT RightHandIndex2
                      {
                        OFFSET -3.61937 0 0
                        CHANNELS 3 Zrotation Xrotation Yrotation
                        JOINT RightHandIndex3
                        {
                          OFFSET -2.0521 0 0
                          CHANNELS 3 Zrotation Xrotation Yrotation
                          End Site
                          {
                            OFFSET -1.805 0 0
                          }
                        }
                      }
                    }
                  }
                  JOINT RightInHandMiddle
                  {
                    OFFSET -3.38211 0.517263 0.756737
                    CHANNELS 3 Zrotation Xrotation Yrotation
                    JOINT RightHandMiddle1
                    {
                      OFFSET -5.17411 -0.084 0.313895
                      CHANNELS 3 Zrotation Xrotation Yrotation
                      JOINT RightHandMiddle2
                      {
                        OFFSET -3.94947 0 0
                        CHANNELS 3 Zrotation Xrotation Yrotation
                        JOINT RightHandMiddle3
                        {
                          OFFSET -2.47579 0 0
                          CHANNELS 3 Zrotation Xrotation Yrotation
                          End Site
                          {
                            OFFSET -1.975 0 0
                          }
                        }
                      }
                    }
                  }
                  JOINT RightInHandRing
                  {
                    OFFSET -3.36516 0.537895 -0.128947
                    CHANNELS 3 Zrotation Xrotation Yrotation
                    JOINT RightHandRing1
                    {
                      OFFSET -4.63474 -0.022105 -0.478947
                      CHANNELS 3 Zrotation Xrotation Yrotation
                      JOINT RightHandRing2
                      {
                        OFFSET -3.44238 0 0
                        CHANNELS 3 Zrotation Xrotation Yrotation
                        JOINT RightHandRing3
                        {
                          OFFSET -2.3881 0 0
                          CHANNELS 3 Zrotation Xrotation Yrotation
                          End Site
                          {
                            OFFSET -1.857 0 0
                          }
                        }
                      }
                    }
                  }
                  JOINT RightInHandPinky
                  {
                    OFFSET -3.16105 0.469368 -1.20179
                    CHANNELS 3 Zrotation Xrotation Yrotation
                    JOINT RightHandPinky1
                    {
                      OFFSET -4.14105 -0.022105 -1.09053
                      CHANNELS 3 Zrotation Xrotation Yrotation
                      JOINT RightHandPinky2
                      {
                        OFFSET -2.75653 0 0
                        CHANNELS 3 Zrotation Xrotation Yrotation
                        JOINT RightHandPinky3
                        {
                          OFFSET -1.74189 0 0
                          CHANNELS 3 Zrotation Xrotation Yrotation
                          End Site
                          {
                            OFFSET -1.645 0 0
                          }
                        }
                      }
                    }
                  }
                }
              }
            }
          }
          JOINT LeftShoulder
          {
            OFFSET 3.26342 6.92519 -0.0174379
            CHANNELS 3 Zrotation Xrotation Yrotation
            JOINT LeftArm
            {
              OFFSET 12.8742 -0.0269705 -0.0666419
              CHANNELS 3 Zrotation Xrotation Yrotation
              JOINT LeftForeArm
              {
                OFFSET 26.5114 0.000826062 -0.052783
                CHANNELS 3 Zrotation Xrotation Yrotation
                JOINT LeftHand
                {
                  OFFSET 25.9941 -0.0689373 0.00603348
                  CHANNELS 3 Zrotation Xrotation Yrotation
                  JOINT LeftHandThumb1
                  {
                    OFFSET 2.48905 0.190105 3.12053
                    CHANNELS 3 Zrotation Xrotation Yrotation
                    JOINT LeftHandThumb2
                    {
                      OFFSET 3.68274 0 0
                      CHANNELS 3 Zrotation Xrotation Yrotation
                      JOINT LeftHandThumb3
                      {
                        OFFSET 2.55832 0 0
                        CHANNELS 3 Zrotation Xrotation Yrotation
                        End Site
                        {
                          OFFSET 2.194 0 0
                        }
                      }
                    }
                  }
                  JOINT LeftInHandIndex
                  {
                    OFFSET 3.22368 0.508421 1.97842
                    CHANNELS 3 Zrotation Xrotation Yrotation
                    JOINT LeftHandIndex1
                    {
                      OFFSET 5.21684 -0.091368 0.999158
                      CHANNELS 3 Zrotation Xrotation Yrotation
                      JOINT LeftHandIndex2
                      {
                        OFFSET 3.61937 0 0
                        CHANNELS 3 Zrotation Xrotation Yrotation
                        JOINT LeftHandIndex3
                        {
                          OFFSET 2.0521 0 0
                          CHANNELS 3 Zrotation Xrotation Yrotation
                          End Site
                          {
                            OFFSET 1.805 0 0
                          }
                        }
                      }
                    }
                  }
                  JOINT LeftInHandMiddle
                  {
                    OFFSET 3.38211 0.517263 0.756737
                    CHANNELS 3 Zrotation Xrotation Yrotation
                    JOINT LeftHandMiddle1
                    {
                      OFFSET 5.17411 -0.084 0.313895
                      CHANNELS 3 Zrotation Xrotation Yrotation
                      JOINT LeftHandMiddle2
                      {
                        OFFSET 3.94947 0 0
                        CHANNELS 3 Zrotation Xrotation Yrotation
                        JOINT LeftHandMiddle3
                        {
                          OFFSET 2.47579 0 0
                          CHANNELS 3 Zrotation Xrotation Yrotation
                          End Site
                          {
                            OFFSET 1.975 0 0
                          }
                        }
                      }
                    }
                  }
                  JOINT LeftInHandRing
                  {
                    OFFSET 3.36516 0.537895 -0.128947
                    CHANNELS 3 Zrotation Xrotation Yrotation
                    JOINT LeftHandRing1
                    {
                      OFFSET 4.63474 -0.022105 -0.478947
                      CHANNELS 3 Zrotation Xrotation Yrotation
                      JOINT LeftHandRing2
                      {
                        OFFSET 3.44238 0 0
                        CHANNELS 3 Zrotation Xrotation Yrotation
                        JOINT LeftHandRing3
                        {
                          OFFSET 2.3881 0 0
                          CHANNELS 3 Zrotation Xrotation Yrotation
                          End Site
                          {
                            OFFSET 1.857 0 0
                          }
                        }
                      }
                    }
                  }
                  JOINT LeftInHandPinky
                  {
                    OFFSET 3.16105 0.469368 -1.20179
                    CHANNELS 3 Zrotation Xrotation Yrotation
                    JOINT LeftHandPinky1
                    {
                      OFFSET 4.14105 -0.022105 -1.09053
                      CHANNELS 3 Zrotation Xrotation Yrotation
                      JOINT LeftHandPinky2
                      {
                        OFFSET 2.75653 0 0
                        CHANNELS 3 Zrotation Xrotation Yrotation
                        JOINT LeftHandPinky3
                        {
                          OFFSET 1.74189 0 0
                          CHANNELS 3 Zrotation Xrotation Yrotation
                          End Site
                          {
                            OFFSET 1.645 0 0
                          }
                        }
                      }
                    }
                  }
                }
              }
            }
          }
        }
      }
    }
  }
}
MOTION
Frames: 3
Frame Time: 0.00833333
8.998067603878412228e+02 -1.101357947426299388e-01 -3.920173649591051301e+00 2.269689560087110980e+00 1.107132817168179129e+00 -5.194204638751609426e-01 4.070129877733153489e-01 -7.389097264550661404e-01 -3.281843740709864843e+00 -6.302270247018332272e-01 3.433943236610884853e+00 -1.893996817518116771e+00 -3.473288714916019648e-01 -1.481586374395469141e+00 3.678378010902210171e+00 1.603574477063546500e+00 -3.737050723925725570e-01 -2.710370896578504052e+00 -1.016060187116862856e+00 7.387049287189941804e-01 -5.368907363472741334e-01 1.449921857722793472e-01 1.097910721441369419e-01 2.787667165390168122e+00 -1.167190179863191846e+00 -1.898532197922082609e+00 -2.258079183063685047e+00 -2.807509907260665183e-01 -3.939102356997249421e-01 -6.288446624761161452e-01 -4.554090410225148378e-01 -6.321166863744874798e-01 -1.070744133932436171e+00 1.806507952542817652e-01 2.317666499875237554e-02 6.980874576343208682e-02 5.748738770506079954e-01 -1.941362859265628238e+00 1.099315757733083565e+01 3.555678194328625530e+00 4.011906389511576521e+00 -5.644852579977265528e+00 -4.842138340392353468e-01 9.803907070614603647e-01 -2.094140863761389859e+00 -7.070659297994352777e+00 -1.327418415874497271e+01 2.040394341899991026e+00 -1.772100162431781811e+01 8.337232958142188011e+00 -1.528711397127948146e+01 -2.548739518696113038e+00 3.099277904277093931e+00 7.386333351422105231e-01 0.000000000000000000e+00 0.000000000000000000e+00 0.000000000000000000e+00 2.364634990574739026e-15 1.106142864239902483e-15 0.000000000000000000e+00 1.294313613645748642e-16 -6.491459622222767303e-16 0.000000000000000000e+00 6.803855796771642015e-16 -6.449186006011830971e-16 -9.920249405641844382e-16 0.000000000000000000e+00 0.000000000000000000e+00 0.000000000000000000e+00 0.000000000000000000e+00 -1.748696255342525062e-15 7.093414322327847511e-16 0.000000000000000000e+00 1.490035236053558409e-14 9.551226460377698162e-14 6.803855796771642015e-16 -6.449186006011830971e-16 -9.920249405641844382e-16 0.000000000000000000e+00 -1.401034154527741172e-15 1.763307291167301883e-15 0.000000000000000000e+00 -2.784158055694915676e-16 -8.646142295269663517e-16 0.000000000000000000e+00 -1.591479957490398602e-14 -8.739437593311050370e-14 6.803855796771642015e-16 -6.449186006011830971e-16 -9.920249405641844382e-16 0.000000000000000000e+00 0.000000000000000000e+00 0.000000000000000000e+00 0.000000000000000000e+00 1.536822087835550872e-15 3.699905641248019367e-16 0.000000000000000000e+00 -9.817904021321635190e-15 -5.309499909398789235e-14 6.803855796771642015e-16 -6.449186006011830971e-16 -9.920249405641844382e-16 0.000000000000000000e+00 0.000000000000000000e+00 0.000000000000000000e+00 0.000000000000000000e+00 -2.009303409827699277e-15 1.908385863175340803e-16 0.000000000000000000e+00 -2.054375764874068256e-15 -1.995963457101504511e-14 -1.534889973093283899e+00 -1.101895165069189941e+00 2.827839212413227887e-01 5.264714413736874654e+00 -7.133393119028497154e-02 -6.979151735123175548e+00 1.423210550440670552e+01 -1.427856238463667005e+01 -1.143496577064062603e+00 9.432828103229660144e-01 -1.235349529469677021e+00 -2.590335357753846601e+00 0.000000000000000000e+00 0.000000000000000000e+00 0.000000000000000000e+00 4.164619689225473558e-16 9.196193457613861242e-16 0.000000000000000000e+00 1.695840233530896367e-15 1.248356180149284366e-15 0.000000000000000000e+00 4.538070475253153465e-16 5.949824360559022650e-16 9.857744301275026350e-16 0.000000000000000000e+00 0.000000000000000000e+00 0.000000000000000000e+00 0.000000000000000000e+00 1.826312851204791534e-15 -1.044082418323698340e-15 0.000000000000000000e+00 5.055842289530321399e-16 -1.445433849673651003e-15 4.538070475253153465e-16 5.949824360559022650e-16 9.857744301275026350e-16 0.000000000000000000e+00 6.934374519188427674e-16 -1.226771313304220199e-15 0.000000000000000000e+00 4.153798958799359973e-15 -4.189459130306463982e-15 0.000000000000000000e+00 -3.718206107690985923e-16 -3.084825584896165476e-15 4.538070475253153465e-16 5.949824360559022650e-16 9.857744301275026350e-16 0.000000000000000000e+00 0.000000000000000000e+00 0.000000000000000000e+00 0.000000000000000000e+00 8.177574908459392890e-16 -3.178275851087505898e-15 0.000000000000000000e+00 1.078611989003316869e-15 -1.393557210501112863e-15 4.538070475253153465e-16 5.949824360559022650e-16 9.857744301275026350e-16 0.000000000000000000e+00 0.000000000000000000e+00 0.000000000000000000e+00 0.000000000000000000e+00 -2.122235897696010140e-16 -3.397433379898226935e-15 0.000000000000000000e+00 -8.726905919638895162e-16 -2.980243818670200398e-15
8.998379410146504824e+02 -1.036151366540495194e-01 -3.863452461788638992e+00 2.244550803626005564e+00 1.075840459773489188e+00 -4.370009966236577670e-01 3.363307024222401131e-01 -7.229458305213820601e-01 -3.311518071338655389e+00 -6.171156298153805952e-01 3.393211059700512955e+00 -1.890346961989188834e+00 -3.527844150888805874e-01 -1.451254705123406819e+00 3.647927368754296129e+00 1.504594179178840641e+00 -3.800464073264051557e-01 -2.770507661500311691e+00 -9.659519905178144406e-01 7.257267317029039155e-01 -5.462997648222628344e-01 1.430264614626004516e-01 1.144262052925805462e-01 2.750131022929029889e+00 -1.162550298397200477e+00 -1.876419648116270045e+00 -2.226492248633615390e+00 -2.796317548204222958e-01 -3.905614464749553316e-01 -6.204299579989591695e-01 -4.535934820248035959e-01 -6.278093108391552546e-01 -1.056815045493882721e+00 1.796420897721011101e-01 2.509383579537573239e-02 6.258336945757281278e-02 5.808348750967646801e-01 -1.910037714943060960e+00 1.085463227430790134e+01 3.533290657789832423e+00 3.992801946852862383e+00 -5.699000576334382728e+00 -5.257508450219440244e-01 9.651729602156557952e-01 -2.032520194064626917e+00 -7.020469476828201216e+00 -1.325718156494364841e+01 1.929389753488701453e+00 -1.769927349615785417e+01 8.097272369572403150e+00 -1.537290969726740464e+01 -2.561825828258568194e+00 3.107691180243426832e+00 6.835560169769951955e-01 0.000000000000000000e+00 0.000000000000000000e+00 0.000000000000000000e+00 2.029940221677498088e-15 1.120310725828040789e-15 0.000000000000000000e+00 6.888462818651897458e-17 -5.087176017954999281e-16 0.000000000000000000e+00 5.336996147155735826e-16 -7.187095019484597022e-16 -8.794646604736128054e-16 0.000000000000000000e+00 0.000000000000000000e+00 0.000000000000000000e+00 0.000000000000000000e+00 -1.668221284331658388e-15 7.892565521646525269e-16 0.000000000000000000e+00 1.298471237613254699e-14 8.450981388738170578e-14 5.336996147155735826e-16 -7.187095019484597022e-16 -8.794646604736128054e-16 0.000000000000000000e+00 -1.366498502710885093e-15 1.730232357222700289e-15 0.000000000000000000e+00 -2.320642929162944074e-16 -6.089286298253017892e-16 0.000000000000000000e+00 -1.430214927500947109e-14 -7.784520489908717392e-14 5.336996147155735826e-16 -7.187095019484597022e-16 -8.794646604736128054e-16 0.000000000000000000e+00 0.000000000000000000e+00 0.000000000000000000e+00 0.000000000000000000e+00 1.312044508315578336e-15 5.431642969485932777e-16 0.000000000000000000e+00 -8.846490305745941991e-15 -4.734037145336686257e-14 5.336996147155735826e-16 -7.187095019484597022e-16 -8.794646604736128054e-16 0.000000000000000000e+00 0.000000000000000000e+00 0.000000000000000000e+00 0.000000000000000000e+00 -1.808558699048865461e-15 1.636213126619826469e-16 0.000000000000000000e+00 -1.896435925076586217e-15 -1.763337935440428489e-14 -1.492258258250729330e+00 -1.063772672985586309e+00 3.164875513897386083e-01 5.093278683652742167e+00 -9.203330365354800424e-02 -6.778107697558418465e+00 1.407734669601335575e+01 -1.427596955515876154e+01 -1.184874734501368820e+00 9.642913992236525900e-01 -1.187292803105143735e+00 -2.548022672872260141e+00 0.000000000000000000e+00 0.000000000000000000e+00 0.000000000000000000e+00 4.038087471080256431e-16 7.627524421965661055e-16 0.000000000000000000e+00 1.645416886968938830e-15 1.005931310189510934e-15 0.000000000000000000e+00 4.675509934871802345e-16 5.645274739233404358e-16 8.976431069682116673e-16 0.000000000000000000e+00 0.000000000000000000e+00 0.000000000000000000e+00 0.000000000000000000e+00 1.686944711136130388e-15 -6.504200062694769018e-16 0.000000000000000000e+00 4.816394040282386188e-16 -1.244028810201610601e-15 4.675509934871802345e-16 5.645274739233404358e-16 8.976431069682116673e-16 0.000000000000000000e+00 5.713566937453733140e-16 -9.455700103409710235e-16 0.000000000000000000e+00 3.907978309844628677e-15 -3.666262004847451827e-15 0.000000000000000000e+00 -3.301442752161741135e-16 -2.626090775522930667e-15 4.675509934871802345e-16 5.645274739233404358e-16 8.976431069682116673e-16 0.000000000000000000e+00 0.000000000000000000e+00 0.000000000000000000e+00 0.000000000000000000e+00 7.382611849981046367e-16 -2.759945259337082983e-15 0.000000000000000000e+00 1.078587376384695356e-15 -1.049446275146940336e-15 4.675509934871802345e-16 5.645274739233404358e-16 8.976431069682116673e-16 0.000000000000000000e+00 0.000000000000000000e+00 0.000000000000000000e+00 0.000000000000000000e+00 -3.826014096253680701e-16 -3.004135478729487019e-15 0.000000000000000000e+00 -8.707204092691947230e-16 -2.499329489571578735e-15
8.998753546144167785e+02 -9.523649853856974712e-02 -3.785972946731136268e+00 2.217698312327760934e+00 1.032547200479958294e+00 -3.641257975304000860e-01 2.635105920942186208e-01 -7.056641045157244774e-01 -3.331011643089147878e+00 -5.971564614487190337e-01 3.327177337792791345e+00 -1.878017054440815459e+00 -3.613493687058801918e-01 -1.407553744553031283e+00 3.612388771012932320e+00 1.396004707112381782e+00 -3.819368361640416154e-01 -2.828450408853435238e+00 -9.089780431235905400e-01 7.118827119428572381e-01 -5.519100498134610344e-01 1.474235506747164914e-01 1.168573994248647552e-01 2.719298299706770727e+00 -1.151289898215739793e+00 -1.851529227801398392e+00 -2.198508703850860613e+00 -2.770707149653737211e-01 -3.869710144140753871e-01 -6.126174663672474541e-01 -4.494248852940618266e-01 -6.231186674941935344e-01 -1.043717947739156493e+00 1.777589752963180114e-01 2.727490935004545786e-02 5.532120193653095735e-02 5.851526292884453584e-01 -1.874550537468319567e+00 1.069669116968603362e+01 3.495945375795395993e+00 3.970273678053942934e+00 -5.744286072766725759e+00 -5.682752697536042064e-01 9.513886547834955465e-01 -1.964906253322140417e+00 -6.928909633155201142e+00 -1.322201545487018137e+01 1.815610683269788694e+00 -1.761877986311501942e+01 7.793550501356952154e+00 -1.541879626857839902e+01 -2.561901640683500680e+00 3.108763428581735155e+00 6.438970489776414396e-01 0.000000000000000000e+00 0.000000000000000000e+00 0.000000000000000000e+00 1.611938266351290761e-15 1.136138772277434119e-15 0.000000000000000000e+00 -2.551894963003481506e-17 -3.531210619604654499e-16 0.000000000000000000e+00 3.589344394481553968e-16 -7.924279517615112302e-16 -7.431592195501618041e-16 0.000000000000000000e+00 0.000000000000000000e+00 0.000000000000000000e+00 0.000000000000000000e+00 -1.574328327544721107e-15 8.867555486742851791e-16 0.000000000000000000e+00 1.075726451665188496e-14 7.170733088178708454e-14 3.589344394481553968e-16 -7.924279517615112302e-16 -7.431592195501618041e-16 0.000000000000000000e+00 -1.329561912791731318e-15 1.717463362605536663e-15 0.000000000000000000e+00 -1.694383533278719742e-16 -3.074270146913403160e-16 0.000000000000000000e+00 -1.238609757239665911e-14 -6.661280710584693203e-14 3.589344394481553968e-16 -7.924279517615112302e-16 -7.431592195501618041e-16 0.000000000000000000e+00 0.000000000000000000e+00 0.000000000000000000e+00 0.000000000000000000e+00 1.045326281113479383e-15 7.574024882446144730e-16 0.000000000000000000e+00 -7.709995039992349979e-15 -4.058598413316326528e-14 3.589344394481553968e-16 -7.924279517615112302e-16 -7.431592195501618041e-16 0.000000000000000000e+00 0.000000000000000000e+00 0.000000000000000000e+00 0.000000000000000000e+00 -1.572396487511169790e-15 1.671678727988800957e-16 0.000000000000000000e+00 -1.689236920072902950e-15 -1.490573648160051727e-14 -1.441114370744992934e+00 -1.023897047429901175e+00 3.482704009726361183e-01 4.886065871743236144e+00 -1.107395579518523077e-01 -6.543783884800185469e+00 1.386839375969886845e+01 -1.422234889923821655e+01 -1.241704952493775771e+00 9.738147971157594673e-01 -1.128067952331004875e+00 -2.497260916263763786e+00 0.000000000000000000e+00 0.000000000000000000e+00 0.000000000000000000e+00 3.928929790740711266e-16 5.752260882303799794e-16 0.000000000000000000e+00 1.567140426833457483e-15 7.714946133245796366e-16 0.000000000000000000e+00 4.855117336980486363e-16 5.167931331836701395e-16 7.962272171929912420e-16 0.000000000000000000e+00 0.000000000000000000e+00 0.000000000000000000e+00 0.000000000000000000e+00 1.536222732354595821e-15 -2.335656393346778315e-16 0.000000000000000000e+00 4.533571076738934046e-16 -1.060617853322981563e-15 4.855117336980486363e-16 5.167931331836701395e-16 7.962272171929912420e-16 0.000000000000000000e+00 4.169071026828025731e-16 -6.678986764213980846e-16 0.000000000000000000e+00 3.635392630629302361e-15 -3.113226964854118377e-15 0.000000000000000000e+00 -2.668267698211961254e-16 -2.149325558524532875e-15 4.855117336980486363e-16 5.167931331836701395e-16 7.962272171929912420e-16 0.000000000000000000e+00 0.000000000000000000e+00 0.000000000000000000e+00 0.000000000000000000e+00 6.580697325322401644e-16 -2.328652403495193436e-15 0.000000000000000000e+00 1.079991552295086023e-15 -6.942093783239056638e-16 4.855117336980486363e-16 5.167931331836701395e-16 7.962272171929912420e-16 0.000000000000000000e+00 0.000000000000000000e+00 0.000000000000000000e+00 0.000000000000000000e+00 -5.826975022303197528e-16 -2.555889181415655419e-15 0.000000000000000000e+00 -8.648873730144991431e-16 -1.996567486110594747e-15
